<svg aria-hidden="true" style="position: absolute; width: 0; height: 0; overflow: hidden;" version="1.1" xmlns="http://www.w3.org/2000/svg" xmlns:xlink="http://www.w3.org/1999/xlink">
<defs>
<symbol id="icon-phone" viewBox="0 0 32 32">
<path fill="#fff" style="fill: var(--color1, #fff)" d="M20.244 1.952c0.063-0.247 0.218-0.458 0.43-0.587s0.464-0.163 0.701-0.097c2.246 0.631 4.293 1.869 5.938 3.588s2.828 3.86 3.432 6.208c0.032 0.123 0.041 0.251 0.025 0.377s-0.055 0.248-0.115 0.359c-0.061 0.11-0.142 0.207-0.238 0.285s-0.207 0.134-0.324 0.167c-0.118 0.033-0.241 0.041-0.361 0.024s-0.237-0.059-0.342-0.123c-0.105-0.064-0.197-0.149-0.271-0.251s-0.128-0.217-0.158-0.34c-0.52-2.020-1.538-3.862-2.952-5.341s-3.176-2.543-5.108-3.087c-0.117-0.033-0.227-0.089-0.324-0.167s-0.177-0.173-0.238-0.283c-0.061-0.11-0.1-0.231-0.116-0.357s-0.008-0.254 0.023-0.376zM19.622 8.113c1.097 0.308 2.096 0.912 2.899 1.752s1.381 1.885 1.675 3.031c0.063 0.248 0.218 0.459 0.43 0.587s0.465 0.163 0.701 0.097 0.439-0.228 0.561-0.45c0.123-0.222 0.156-0.486 0.093-0.733-0.379-1.474-1.122-2.819-2.155-3.898s-2.318-1.856-3.729-2.253c-0.117-0.033-0.24-0.041-0.36-0.024s-0.236 0.058-0.341 0.121c-0.212 0.128-0.367 0.339-0.43 0.587s-0.030 0.511 0.093 0.733c0.123 0.222 0.325 0.384 0.561 0.45zM31.942 23.912c-0.258 2.098-1.238 4.026-2.756 5.424s-3.472 2.17-5.495 2.172c-12.060 0-21.871-10.257-21.871-22.865 0.002-2.115 0.741-4.157 2.078-5.745s3.181-2.612 5.188-2.882c0.463-0.058 0.932 0.042 1.336 0.285s0.722 0.617 0.907 1.065l3.094 7.548c0.14 0.342 0.198 0.714 0.167 1.085s-0.149 0.727-0.345 1.038l-2.562 4.093c-0.029 0.044-0.047 0.095-0.051 0.148s0.004 0.107 0.025 0.155c1.189 2.536 3.156 4.582 5.586 5.814 0.047 0.022 0.098 0.031 0.149 0.026s0.1-0.024 0.142-0.055l3.856-2.688c0.298-0.209 0.642-0.336 0.999-0.37s0.717 0.025 1.047 0.174l7.214 3.232c0.429 0.193 0.786 0.525 1.019 0.948s0.329 0.913 0.273 1.397zM30.108 23.67c0.007-0.068-0.008-0.137-0.041-0.196s-0.084-0.105-0.145-0.131l-7.214-3.232c-0.047-0.021-0.099-0.030-0.15-0.025s-0.1 0.023-0.143 0.053l-3.856 2.688c-0.31 0.217-0.668 0.345-1.040 0.374s-0.744-0.045-1.081-0.212c-2.804-1.421-5.072-3.781-6.444-6.706-0.161-0.35-0.232-0.737-0.208-1.124s0.144-0.761 0.348-1.086l2.562-4.093c0.028-0.044 0.045-0.095 0.049-0.148s-0.004-0.106-0.024-0.155l-3.094-7.548c-0.023-0.058-0.061-0.107-0.111-0.142s-0.107-0.054-0.167-0.055c-0.012 0-0.023 0.001-0.035 0.002-1.56 0.21-2.994 1.007-4.034 2.242s-1.614 2.823-1.615 4.468c0.006 5.55 2.117 10.871 5.871 14.795s8.843 6.132 14.152 6.138c1.573-0.001 3.092-0.601 4.273-1.688s1.943-2.586 2.144-4.217z"></path>
</symbol>
</defs>
</svg>
