<svg aria-hidden="true" style="position: absolute; width: 0; height: 0; overflow: hidden;" version="1.1" xmlns="http://www.w3.org/2000/svg" xmlns:xlink="http://www.w3.org/1999/xlink">
<defs>
<symbol id="icon-instagram" viewBox="0 0 32 32">
<path fill="" style="" d="M16.092 9.605c-1.394 0.006-2.754 0.416-3.91 1.18s-2.054 1.845-2.582 3.108c-0.528 1.263-0.662 2.651-0.384 3.988s0.954 2.564 1.944 3.525c0.99 0.961 2.248 1.612 3.616 1.873s2.784 0.118 4.070-0.41c1.285-0.528 2.382-1.417 3.152-2.555s1.177-2.474 1.171-3.839c-0.010-1.829-0.761-3.58-2.087-4.867s-3.12-2.008-4.989-2.002zM16.143 21.605c-1.030 0.004-2.038-0.29-2.897-0.847s-1.53-1.35-1.928-2.28c-0.398-0.93-0.506-1.955-0.309-2.945s0.689-1.901 1.414-2.617 1.651-1.206 2.661-1.407c1.010-0.201 2.057-0.105 3.011 0.277s1.77 1.032 2.346 1.868c0.576 0.836 0.885 1.821 0.89 2.83 0.006 1.353-0.537 2.652-1.51 3.613s-2.295 1.504-3.676 1.509zM23.409 1.174l-14.706 0.063c-2.193 0.012-4.292 0.875-5.837 2.4s-2.408 3.588-2.401 5.735l0.061 14.4c0.012 2.148 0.893 4.203 2.45 5.715s3.664 2.357 5.857 2.35l14.706-0.063c2.193-0.012 4.292-0.875 5.837-2.4s2.408-3.588 2.401-5.735l-0.061-14.4c-0.012-2.147-0.893-4.203-2.45-5.715s-3.664-2.357-5.857-2.35zM29.939 23.646c0.007 1.671-0.664 3.276-1.865 4.463s-2.835 1.857-4.542 1.864l-14.706 0.063c-1.706 0.007-3.346-0.65-4.557-1.826s-1.896-2.776-1.903-4.447l-0.061-14.4c-0.007-1.671 0.664-3.276 1.865-4.463s2.835-1.857 4.542-1.865l14.706-0.063c1.706-0.007 3.346 0.649 4.557 1.826s1.896 2.776 1.903 4.447l0.061 14.4zM25.585 8.664c0.001 0.297-0.087 0.587-0.255 0.834s-0.406 0.441-0.685 0.555c-0.28 0.115-0.587 0.146-0.885 0.089s-0.571-0.198-0.786-0.407c-0.215-0.209-0.362-0.476-0.423-0.766s-0.031-0.592 0.084-0.867 0.31-0.51 0.561-0.676c0.251-0.166 0.547-0.255 0.85-0.256 0.406-0.002 0.797 0.155 1.085 0.435s0.452 0.661 0.453 1.059z"></path>
</symbol>
<symbol id="icon-facebook" viewBox="0 0 34 32">
<path fill="" style="" d="M16.429 0.863c-3.090 0.013-6.107 0.923-8.67 2.616s-4.555 4.090-5.726 6.891c-1.171 2.801-1.467 5.878-0.851 8.844s2.115 5.685 4.31 7.816 4.985 3.576 8.018 4.153c3.034 0.577 6.174 0.261 9.024-0.909s5.282-3.142 6.988-5.665 2.61-5.485 2.597-8.512c-0.022-4.056-1.687-7.938-4.628-10.794s-6.92-4.452-11.063-4.439zM17.471 29.629l-0.043-10.17 3.983-0.017c0.244-0.001 0.477-0.097 0.649-0.266s0.268-0.399 0.267-0.637c-0.001-0.239-0.099-0.467-0.272-0.635s-0.407-0.262-0.651-0.261l-3.983 0.017-0.017-3.9c-0.003-0.716 0.284-1.404 0.8-1.913s1.215-0.796 1.946-0.799l2.451-0.010c0.244-0.001 0.477-0.097 0.649-0.266s0.268-0.399 0.266-0.638c-0.001-0.239-0.099-0.467-0.272-0.635s-0.407-0.262-0.651-0.261l-2.451 0.010c-1.219 0.005-2.386 0.484-3.244 1.332s-1.338 1.994-1.332 3.188l0.017 3.9-3.983 0.017c-0.244 0.001-0.477 0.097-0.649 0.266s-0.268 0.399-0.267 0.637c0.001 0.239 0.099 0.467 0.272 0.635s0.407 0.262 0.651 0.261l3.983-0.017 0.043 10.17c-3.57-0.218-6.913-1.786-9.324-4.374s-3.7-5.991-3.596-9.492 1.594-6.825 4.155-9.271c2.561-2.446 5.992-3.822 9.569-3.837s7.020 1.331 9.601 3.755c2.582 2.424 4.1 5.736 4.234 9.236s-1.126 6.914-3.514 9.522c-2.388 2.608-5.718 4.204-9.286 4.453z"></path>
</symbol>
<symbol id="icon-close" viewBox="0 0 32 32">
<path fill="" style="" d="M26.247 3.2l-10.879 9.19-10.879-9.19-4.273 3.61 10.879 9.19-10.879 9.19 4.273 3.61 10.879-9.19 10.879 9.19 4.273-3.61-10.879-9.19 10.879-9.19-4.273-3.61z"></path>
</symbol>
<symbol id="icon-play" viewBox="0 0 32 32">
<path fill="" style="" d="M0.452 16c0-7.313 7.018-13.241 15.674-13.241s15.674 5.928 15.674 13.241c0 7.313-7.018 13.241-15.674 13.241s-15.674-5.928-15.674-13.241zM14.333 10.909c-1.306-0.611-2.908 0.187-2.908 1.448v7.287c0 1.261 1.603 2.059 2.908 1.448l9.025-4.223c0.374-0.175 0.606-0.508 0.606-0.869s-0.232-0.694-0.606-0.869l-9.025-4.223z"></path>
</symbol>
<symbol id="icon-next" viewBox="0 0 32 32">
<path fill="" style="" d="M15.575 1.067c8.483 0 15.36 6.877 15.36 15.36s-6.877 15.36-15.36 15.36c-8.483 0-15.36-6.877-15.36-15.36s6.877-15.36 15.36-15.36zM15.575 3.371c-7.211 0-13.056 5.845-13.056 13.056s5.845 13.056 13.056 13.056c7.211 0 13.056-5.845 13.056-13.056s-5.845-13.056-13.056-13.056zM15.033 9.596l0.111-0.129c0.409-0.409 1.049-0.446 1.5-0.112l0.129 0.112 6.145 6.145c0.409 0.409 0.446 1.049 0.111 1.5l-0.112 0.129-6.146 6.144c-0.45 0.45-1.179 0.45-1.629-0-0.409-0.409-0.446-1.049-0.111-1.5l0.111-0.129 4.181-4.179-10.278 0c-0.583 0-1.065-0.434-1.141-0.996l-0.011-0.156c0-0.583 0.433-1.065 0.996-1.142l0.156-0.010 10.275-0.001-4.177-4.177c-0.409-0.409-0.446-1.049-0.111-1.5z"></path>
</symbol>
<symbol id="icon-point" viewBox="0 0 32 32">
<path fill="" style="" d="M16.023 18.577c-3.441 0-6.252-2.059-6.252-4.606s2.811-4.594 6.252-4.594c3.441 0 6.252 2.059 6.252 4.606s-2.811 4.594-6.252 4.594zM16.023 11.162c-2.1 0-3.828 1.262-3.828 2.821s1.712 2.821 3.828 2.821c2.116 0 3.828-1.262 3.828-2.821s-1.729-2.821-3.828-2.821z"></path>
<path fill="" style="" d="M16.021 28.8c-2.391 0-4.798-0.666-6.672-1.988-4.765-3.38-10.032-8.771-8.045-15.186 1.793-5.82 8.691-8.426 14.716-8.426h0.016c6.025 0 12.923 2.606 14.716 8.438 1.971 6.415-3.295 11.794-8.061 15.174-1.874 1.321-4.281 1.988-6.671 1.988zM16.021 4.985c-4.701 0-10.742 1.845-12.342 7.034-1.745 5.606 3.037 10.438 7.366 13.496 2.795 1.988 7.172 1.988 9.967 0 4.313-3.059 9.095-7.891 7.382-13.496-1.615-5.189-7.673-7.034-12.374-7.034z"></path>
</symbol>
<symbol id="icon-phone" viewBox="0 0 32 32">
<path fill="" style="" d="M19.304 2.543c0.065-0.241 0.222-0.447 0.439-0.572s0.473-0.159 0.715-0.095c2.289 0.616 4.376 1.822 6.052 3.498s2.882 3.763 3.498 6.052c0.033 0.12 0.041 0.245 0.026 0.368s-0.056 0.242-0.118 0.35c-0.062 0.108-0.144 0.202-0.243 0.278s-0.211 0.131-0.331 0.163-0.245 0.040-0.368 0.024c-0.123-0.016-0.242-0.057-0.349-0.12s-0.201-0.146-0.276-0.244c-0.075-0.099-0.13-0.212-0.161-0.332-0.53-1.969-1.567-3.765-3.009-5.207s-3.238-2.48-5.207-3.009c-0.12-0.032-0.232-0.087-0.33-0.162s-0.181-0.169-0.243-0.276c-0.062-0.107-0.102-0.225-0.118-0.348s-0.008-0.247 0.024-0.367zM18.671 8.551c1.118 0.3 2.137 0.889 2.955 1.708s1.407 1.838 1.708 2.955c0.064 0.241 0.222 0.447 0.439 0.572s0.473 0.159 0.715 0.095 0.447-0.222 0.572-0.439c0.125-0.216 0.159-0.473 0.095-0.715-0.386-1.437-1.144-2.748-2.196-3.801s-2.363-1.81-3.8-2.196c-0.12-0.032-0.244-0.040-0.367-0.024s-0.241 0.056-0.348 0.118c-0.216 0.125-0.374 0.331-0.439 0.572s-0.030 0.498 0.095 0.715 0.331 0.374 0.572 0.439zM31.229 23.954c-0.263 2.045-1.262 3.925-2.81 5.288s-3.539 2.116-5.601 2.118c-12.293 0-22.294-10.001-22.294-22.294 0.002-2.062 0.755-4.053 2.118-5.601s3.242-2.546 5.288-2.81c0.472-0.057 0.95 0.041 1.362 0.278s0.736 0.602 0.924 1.039l3.154 7.36c0.143 0.333 0.202 0.696 0.17 1.058s-0.152 0.709-0.351 1.012l-2.612 3.991c-0.030 0.043-0.047 0.093-0.052 0.145s0.004 0.104 0.026 0.152c1.212 2.472 3.216 4.468 5.694 5.669 0.048 0.021 0.1 0.030 0.152 0.025s0.102-0.024 0.145-0.053l3.93-2.621c0.304-0.204 0.654-0.328 1.018-0.361s0.731 0.025 1.067 0.169l7.353 3.152c0.437 0.188 0.801 0.512 1.039 0.924s0.335 0.89 0.278 1.362zM29.359 23.718c0.007-0.066-0.008-0.134-0.042-0.191s-0.086-0.102-0.148-0.128l-7.353-3.151c-0.048-0.020-0.1-0.029-0.152-0.024s-0.102 0.022-0.146 0.051l-3.93 2.621c-0.316 0.211-0.681 0.337-1.060 0.364s-0.758-0.044-1.101-0.207c-2.858-1.385-5.17-3.687-6.568-6.538-0.164-0.341-0.237-0.719-0.212-1.096s0.147-0.742 0.355-1.059l2.612-3.991c0.028-0.043 0.046-0.093 0.050-0.145s-0.004-0.104-0.024-0.151l-3.154-7.359c-0.023-0.056-0.063-0.104-0.113-0.138s-0.109-0.053-0.17-0.054c-0.012 0-0.024 0.001-0.036 0.002-1.591 0.205-3.052 0.982-4.112 2.186s-1.645 2.752-1.646 4.356c0.006 5.411 2.158 10.599 5.985 14.425s9.014 5.979 14.425 5.985c1.604-0.001 3.152-0.587 4.356-1.646s1.981-2.521 2.185-4.112z"></path>
</symbol>
<symbol id="icon-calendar" viewBox="0 0 32 32">
<path fill="" style="" d="M23.753 4.519v-2.221c0-0.584-0.58-1.068-1.28-1.068s-1.28 0.484-1.28 1.068v2.135h-11.096v-2.135c0-0.584-0.58-1.068-1.28-1.068s-1.28 0.484-1.28 1.068v2.221c-4.609 0.356-6.845 2.648-7.187 6.050-0.034 0.413 0.376 0.755 0.854 0.755h28.884c0.495 0 0.905-0.356 0.854-0.755-0.341-3.402-2.578-5.694-7.187-6.050z"></path>
<path fill="" style="" d="M29.303 13.459h-27.313c-0.939 0-1.707 0.64-1.707 1.424v8.769c0 4.271 2.561 7.118 8.535 7.118h13.657c5.975 0 8.535-2.847 8.535-7.118v-8.769c0-0.783-0.768-1.424-1.707-1.424zM10.883 25.374c-0.085 0.057-0.171 0.128-0.256 0.171-0.102 0.057-0.205 0.1-0.307 0.128-0.102 0.043-0.205 0.071-0.307 0.085-0.12 0.014-0.222 0.028-0.341 0.028-0.222 0-0.444-0.043-0.649-0.114-0.222-0.071-0.393-0.171-0.563-0.299-0.307-0.271-0.495-0.641-0.495-1.011s0.188-0.74 0.495-1.011c0.171-0.128 0.341-0.228 0.563-0.299 0.307-0.114 0.649-0.142 0.99-0.085 0.102 0.014 0.205 0.043 0.307 0.085 0.102 0.028 0.205 0.071 0.307 0.128 0.085 0.057 0.171 0.114 0.256 0.171 0.307 0.27 0.495 0.641 0.495 1.011s-0.188 0.74-0.495 1.011zM10.883 20.392c-0.324 0.256-0.768 0.413-1.212 0.413s-0.888-0.157-1.212-0.413c-0.307-0.271-0.495-0.641-0.495-1.011s0.188-0.74 0.495-1.011c0.478-0.399 1.229-0.527 1.861-0.299 0.222 0.071 0.41 0.171 0.563 0.299 0.307 0.271 0.495 0.641 0.495 1.011s-0.188 0.74-0.495 1.011zM16.858 25.374c-0.324 0.256-0.768 0.413-1.212 0.413s-0.888-0.157-1.212-0.413c-0.307-0.271-0.495-0.641-0.495-1.011s0.188-0.74 0.495-1.011c0.632-0.527 1.793-0.527 2.424 0 0.307 0.27 0.495 0.641 0.495 1.011s-0.188 0.74-0.495 1.011zM16.858 20.392c-0.085 0.057-0.171 0.114-0.256 0.171-0.102 0.057-0.205 0.1-0.307 0.128-0.102 0.043-0.205 0.071-0.307 0.085-0.12 0.014-0.222 0.028-0.341 0.028-0.444 0-0.888-0.157-1.212-0.413-0.307-0.271-0.495-0.641-0.495-1.011s0.188-0.74 0.495-1.011c0.154-0.128 0.341-0.228 0.563-0.299 0.632-0.228 1.383-0.1 1.861 0.299 0.307 0.271 0.495 0.641 0.495 1.011s-0.188 0.74-0.495 1.011zM22.833 25.374c-0.324 0.256-0.768 0.413-1.212 0.413s-0.888-0.157-1.212-0.413c-0.307-0.271-0.495-0.641-0.495-1.011s0.188-0.74 0.495-1.011c0.632-0.527 1.793-0.527 2.424 0 0.307 0.27 0.495 0.641 0.495 1.011s-0.188 0.74-0.495 1.011zM22.833 20.392c-0.085 0.057-0.171 0.114-0.256 0.171-0.102 0.057-0.205 0.1-0.307 0.128-0.103 0.043-0.205 0.071-0.307 0.085-0.119 0.014-0.239 0.028-0.341 0.028-0.444 0-0.888-0.157-1.212-0.413-0.307-0.271-0.495-0.641-0.495-1.011s0.188-0.74 0.495-1.011c0.171-0.128 0.341-0.228 0.563-0.299 0.307-0.114 0.649-0.142 0.99-0.085 0.102 0.014 0.205 0.043 0.307 0.085 0.102 0.029 0.205 0.071 0.307 0.128l0.256 0.171c0.307 0.271 0.495 0.641 0.495 1.011s-0.188 0.74-0.495 1.011z"></path>
</symbol>
</defs>
</svg>
